<svg xmlns="http://www.w3.org/2000/svg" viewBox="0 0 100 100">
  <!-- Apple body - left lobe brighter -->
  <path d="M50 40 C40 28 14 30 8 52 C2 74 20 92 50 92 C80 92 98 74 92 52 C86 30 60 28 50 40Z"
        fill="#dc2626"/>
  <!-- Apple body - right side darker for depth -->
  <path d="M50 40 C60 28 86 30 92 52 C98 74 80 92 50 92 C68 88 80 72 80 54 C80 38 64 30 50 40Z"
        fill="#b91c1c"/>
  <!-- Stem -->
  <path d="M50 40 C52 28 60 20 58 12"
        stroke="#92400e" stroke-width="2.5" fill="none" stroke-linecap="round"/>
  <!-- Leaf -->
  <path d="M57 25 C67 17 77 24 71 33 C65 28 59 27 57 25Z"
        fill="#16a34a"/>
  <!-- Leaf vein -->
  <path d="M57 25 C63 28 68 31 71 33"
        stroke="#15803d" stroke-width="0.8" fill="none"/>
  <!-- Highlight gloss -->
  <ellipse cx="30" cy="57" rx="8" ry="14" fill="rgba(255,255,255,0.18)"
           transform="rotate(-20,30,57)"/>
  <ellipse cx="26" cy="51" rx="4" ry="6" fill="rgba(255,255,255,0.28)"
           transform="rotate(-20,26,51)"/>
</svg>
